<svg width="18" height="18" viewBox="0 0 18 18" fill="none" xmlns="http://www.w3.org/2000/svg">
<path d="M17.1187 17.75V9.6125C17.1187 9.275 16.8438 8.99375 16.5 8.99375H11.5V6.5H12.75V7.24375C12.75 7.525 12.975 7.75 13.25 7.75H15.3688C15.65 7.75 15.875 7.525 15.875 7.25V2.00625C15.875 1.725 15.65 1.5 15.375 1.5H13.2562C12.975 1.5 12.75 1.725 12.75 2.00625V2.75H11.5V0.825C11.5 0.50625 11.2437 0.25 10.925 0.25H1.45C1.13125 0.25 0.875 0.50625 0.875 0.825V17.7375H2.1125V14.6438C2.1125 14.2875 2.4 14 2.75625 14H9.60625C9.9625 14 10.25 14.2875 10.25 14.6438V17.75H9.63125V14.8438C9.63125 14.725 9.5375 14.625 9.4125 14.625H7.9875C7.86875 14.625 7.76875 14.7188 7.76875 14.8438V17.75H5.875H17.1187ZM11.5 15.8813V14H12.4375C12.6125 14 12.75 14.1438 12.75 14.3125V15.5625C12.75 15.7375 12.6125 15.875 12.4375 15.8813H11.5ZM11.5 12.7563V10.875H12.4375C12.6125 10.875 12.75 11.0188 12.75 11.1875V12.4375C12.75 12.6125 12.6125 12.75 12.4375 12.7563H11.5ZM12.75 5.875H11.5V3.375H12.75V5.875ZM15.875 11.1875V12.4375C15.875 12.6125 15.7375 12.75 15.5625 12.7563H14.3C14.125 12.7563 13.9875 12.6125 13.9875 12.4438V11.1875C13.9875 11.0125 14.1312 10.875 14.3 10.875H15.5625C15.7375 10.875 15.875 11.0188 15.875 11.1875ZM15.875 14.3125V15.5625C15.875 15.7375 15.7375 15.875 15.5625 15.8813H14.3C14.125 15.8813 13.9875 15.7375 13.9875 15.5688V14.3125C13.9875 14.1375 14.1312 14 14.3 14H15.5625C15.7375 14 15.875 14.1438 15.875 14.3125ZM7.13125 1.8125V3.0625C7.13125 3.2375 6.99375 3.375 6.81875 3.375H5.55625C5.38125 3.375 5.24375 3.23125 5.24375 3.0625V1.8125C5.24375 1.6375 5.3875 1.5 5.55625 1.5H6.81875C6.99375 1.5 7.13125 1.64375 7.13125 1.8125ZM7.13125 6.1875C7.13125 6.3625 6.99375 6.5 6.81875 6.5H5.55625C5.38125 6.5 5.24375 6.35625 5.24375 6.1875V4.9375C5.24375 4.7625 5.3875 4.625 5.55625 4.625H6.81875C6.99375 4.625 7.13125 4.76875 7.13125 4.9375V6.1875ZM7.13125 8.0625V9.3125C7.13125 9.4875 6.99375 9.625 6.81875 9.63125H5.55625C5.38125 9.63125 5.24375 9.4875 5.24375 9.31875V8.0625C5.24375 7.8875 5.3875 7.75 5.55625 7.75H6.81875C6.99375 7.75 7.13125 7.89375 7.13125 8.0625ZM7.13125 11.1875V12.4375C7.13125 12.6125 6.99375 12.75 6.81875 12.7563H5.55625C5.38125 12.7563 5.24375 12.6125 5.24375 12.4438V11.1875C5.24375 11.0125 5.3875 10.875 5.55625 10.875H6.81875C6.99375 10.875 7.13125 11.0188 7.13125 11.1875ZM10.2625 12.4375C10.2625 12.6125 10.1188 12.75 9.95 12.7563H8.6875C8.5125 12.7563 8.375 12.6125 8.375 12.4438V11.1875C8.375 11.0125 8.51875 10.875 8.6875 10.875H9.95C10.125 10.875 10.2625 11.0188 10.2625 11.1875V12.4375ZM10.2625 8.0625V9.3125C10.2625 9.4875 10.1188 9.625 9.95 9.63125H8.6875C8.5125 9.63125 8.375 9.4875 8.375 9.31875V8.0625C8.375 7.8875 8.51875 7.75 8.6875 7.75H9.95C10.125 7.75 10.2625 7.89375 10.2625 8.0625ZM10.2625 6.1875C10.2625 6.3625 10.1188 6.5 9.95 6.5H8.6875C8.5125 6.5 8.375 6.35625 8.375 6.1875V4.9375C8.375 4.7625 8.5125 4.625 8.6875 4.625H9.95C10.125 4.625 10.2625 4.76875 10.2625 4.9375V6.1875ZM10.2625 1.8125V3.0625C10.2625 3.2375 10.1188 3.375 9.95 3.375H8.6875C8.5125 3.375 8.375 3.2375 8.375 3.0625V1.8125C8.375 1.6375 8.5125 1.5 8.6875 1.5H9.95C10.125 1.5 10.2625 1.64375 10.2625 1.8125ZM4.00625 12.4375C4.00625 12.6125 3.86875 12.75 3.69375 12.7563H2.43125C2.25625 12.7563 2.11875 12.6125 2.11875 12.4438V11.1875C2.11875 11.0125 2.2625 10.875 2.43125 10.875H3.69375C3.86875 10.875 4.00625 11.0188 4.00625 11.1875V12.4375ZM4.00625 8.0625V9.3125C4.00625 9.4875 3.86875 9.625 3.69375 9.63125H2.43125C2.25625 9.63125 2.11875 9.4875 2.11875 9.31875V8.0625C2.11875 7.8875 2.2625 7.75 2.43125 7.75H3.69375C3.86875 7.75 4.00625 7.89375 4.00625 8.0625ZM4.00625 6.1875C4.00625 6.3625 3.86875 6.5 3.69375 6.5H2.43125C2.25625 6.5 2.11875 6.35625 2.11875 6.1875V4.9375C2.11875 4.7625 2.2625 4.625 2.43125 4.625H3.69375C3.86875 4.625 4.00625 4.76875 4.00625 4.9375V6.1875ZM4.00625 1.8125V3.0625C4.00625 3.2375 3.86875 3.375 3.69375 3.375H2.43125C2.25625 3.375 2.11875 3.23125 2.11875 3.0625V1.8125C2.11875 1.6375 2.2625 1.5 2.43125 1.5H3.69375C3.86875 1.5 4.00625 1.64375 4.00625 1.8125Z" fill="white"/>
<path d="M7.125 17.75H5.2625V14.8438C5.2625 14.7188 5.3625 14.625 5.48125 14.625H6.90625C7.025 14.625 7.125 14.7188 7.125 14.8438V17.75ZM4.6125 14.8438V17.75H2.75V14.8438C2.75 14.7188 2.84375 14.625 2.96875 14.625H4.39375C4.51875 14.625 4.6125 14.725 4.6125 14.8438Z" fill="white"/>
</svg>
