<svg width="23" height="18" viewBox="0 0 23 18" fill="none" xmlns="http://www.w3.org/2000/svg">
<path d="M3.47611 15.6963H15.0706C15.2414 15.6965 15.4098 15.6561 15.562 15.5784C15.7141 15.5007 15.8456 15.388 15.9456 15.2495C16.0456 15.111 16.1112 14.9507 16.137 14.7818C16.1629 14.6129 16.1482 14.4403 16.0942 14.2783L15.0167 11.0736C14.8366 10.5321 14.4491 10.0841 13.9391 9.82797L11.5448 8.63188C11.2456 8.48246 10.9159 8.40427 10.5815 8.40344H7.95873C7.6243 8.40427 7.29459 8.48246 6.9954 8.63188L4.60108 9.82797C4.09114 10.0841 3.70362 10.5321 3.52353 11.0736L2.45891 14.2783C2.40509 14.4398 2.39034 14.6118 2.41585 14.7802C2.44135 14.9486 2.5064 15.1085 2.60566 15.2468C2.70492 15.3852 2.83555 15.4981 2.98686 15.5762C3.13816 15.6543 3.30583 15.6955 3.47611 15.6963V15.6963Z" stroke="black" stroke-width="1.62963" stroke-linecap="round" stroke-linejoin="round"/>
<path d="M9.27332 8.40347C10.748 8.40347 11.9435 6.94845 11.9435 5.15358C11.9435 3.35871 10.748 1.90369 9.27332 1.90369C7.79863 1.90369 6.60315 3.35871 6.60315 5.15358C6.60315 6.94845 7.79863 8.40347 9.27332 8.40347Z" stroke="black" stroke-width="1.62963" stroke-linecap="round" stroke-linejoin="round"/>
<path d="M13.1525 12.2827H11.213" stroke="black" stroke-width="1.62963" stroke-linecap="round" stroke-linejoin="round"/>
<path d="M13.2474 7.82591L13.6418 7.6298C13.8841 7.50884 14.1511 7.44541 14.4219 7.44446H16.5511C16.8221 7.44486 17.0891 7.50832 17.3313 7.6298L19.2709 8.59744C19.6844 8.80478 19.999 9.1674 20.1459 9.60603L21.0079 12.1921C21.0542 12.3233 21.068 12.4637 21.0482 12.6014C21.0285 12.7391 20.9757 12.8699 20.8944 12.9828C20.8131 13.0957 20.7057 13.1872 20.5813 13.2495C20.457 13.3118 20.3194 13.3432 20.1803 13.3408H17.5037" stroke="black" stroke-width="1.62963" stroke-linecap="round" stroke-linejoin="round"/>
<path d="M15.4865 7.43799C16.6803 7.43799 17.6481 6.25988 17.6481 4.80661C17.6481 3.35334 16.6803 2.17523 15.4865 2.17523C14.2927 2.17523 13.325 3.35334 13.325 4.80661C13.325 6.25988 14.2927 7.43799 15.4865 7.43799Z" stroke="black" stroke-width="1.62963" stroke-linecap="round" stroke-linejoin="round"/>
<path d="M18.6286 10.5779H17.0575" stroke="black" stroke-width="1.62963" stroke-linecap="round" stroke-linejoin="round"/>
</svg>
