<svg width="22" height="18" viewBox="0 0 22 18" fill="none" xmlns="http://www.w3.org/2000/svg">
<path d="M2.97611 15.8963H14.5706C14.7414 15.8965 14.9098 15.8561 15.062 15.7784C15.2141 15.7007 15.3456 15.588 15.4456 15.4495C15.5456 15.311 15.6112 15.1507 15.637 14.9818C15.6629 14.8129 15.6482 14.6403 15.5942 14.4783L14.5167 11.2736C14.3366 10.7321 13.9491 10.2842 13.4391 10.028L11.0448 8.8319C10.7456 8.68247 10.4159 8.60428 10.0815 8.60345H7.45873C7.1243 8.60428 6.79459 8.68247 6.4954 8.8319L4.10108 10.028C3.59114 10.2842 3.20362 10.7321 3.02353 11.2736L1.95891 14.4783C1.90509 14.6398 1.89034 14.8118 1.91585 14.9802C1.94135 15.1486 2.0064 15.3085 2.10566 15.4469C2.20492 15.5852 2.33555 15.6981 2.48686 15.7762C2.63816 15.8544 2.80583 15.8955 2.97611 15.8963V15.8963Z" stroke="white" stroke-width="1.62963" stroke-linecap="round" stroke-linejoin="round"/>
<path d="M8.77332 8.60349C10.248 8.60349 11.4435 7.14846 11.4435 5.35359C11.4435 3.55873 10.248 2.1037 8.77332 2.1037C7.29863 2.1037 6.10315 3.55873 6.10315 5.35359C6.10315 7.14846 7.29863 8.60349 8.77332 8.60349Z" stroke="white" stroke-width="1.62963" stroke-linecap="round" stroke-linejoin="round"/>
<path d="M12.6525 12.4827H10.713" stroke="white" stroke-width="1.62963" stroke-linecap="round" stroke-linejoin="round"/>
<path d="M12.7474 8.02592L13.1418 7.82981C13.3841 7.70885 13.6511 7.64542 13.9219 7.64447H16.0511C16.3221 7.64488 16.5891 7.70833 16.8313 7.82981L18.7709 8.79745C19.1844 9.00479 19.499 9.36741 19.6459 9.80604L20.5079 12.3922C20.5542 12.5233 20.568 12.6638 20.5482 12.8014C20.5285 12.9391 20.4757 13.07 20.3944 13.1828C20.3131 13.2957 20.2057 13.3872 20.0813 13.4495C19.957 13.5119 19.8194 13.5432 19.6803 13.5408H17.0037" stroke="white" stroke-width="1.62963" stroke-linecap="round" stroke-linejoin="round"/>
<path d="M14.9865 7.638C16.1803 7.638 17.1481 6.4599 17.1481 5.00662C17.1481 3.55335 16.1803 2.37524 14.9865 2.37524C13.7927 2.37524 12.825 3.55335 12.825 5.00662C12.825 6.4599 13.7927 7.638 14.9865 7.638Z" stroke="white" stroke-width="1.62963" stroke-linecap="round" stroke-linejoin="round"/>
<path d="M18.1286 10.778H16.5575" stroke="white" stroke-width="1.62963" stroke-linecap="round" stroke-linejoin="round"/>
</svg>
