<svg width="20" height="18" viewBox="0 0 20 18" fill="none" xmlns="http://www.w3.org/2000/svg">
<path d="M15 15.6667H4.99998V13.1667H3.33331V15.6667C3.33331 16.5834 4.08331 17.3334 4.99998 17.3334H15C15.9166 17.3334 16.6666 16.5834 16.6666 15.6667V13.1667H15V15.6667ZM4.99998 2.33335H10.8333V6.50002H15V8.16669H16.6666V5.66669L11.6666 0.666687H4.99998C4.08331 0.666687 3.33331 1.41669 3.33331 2.33335V8.16669H4.99998V2.33335ZM7.49998 9.83335H12.5V11.5H7.49998V9.83335ZM14.1666 9.83335H19.1666V11.5H14.1666V9.83335ZM0.833313 9.83335H5.83331V11.5H0.833313V9.83335Z" fill="black"/>
</svg>
