<svg width="20" height="18" viewBox="0 0 20 18" fill="none" xmlns="http://www.w3.org/2000/svg">
<path d="M15 15.6667H5.00004V13.1667H3.33337V15.6667C3.33337 16.5834 4.08337 17.3334 5.00004 17.3334H15C15.9167 17.3334 16.6667 16.5834 16.6667 15.6667V13.1667H15V15.6667ZM5.00004 2.33335H10.8334V6.50002H15V8.16669H16.6667V5.66669L11.6667 0.666687H5.00004C4.08337 0.666687 3.33337 1.41669 3.33337 2.33335V8.16669H5.00004V2.33335ZM7.50004 9.83335H12.5V11.5H7.50004V9.83335ZM14.1667 9.83335H19.1667V11.5H14.1667V9.83335ZM0.833374 9.83335H5.83337V11.5H0.833374V9.83335Z" fill="white"/>
</svg>
