<svg width="16" height="16" viewBox="0 0 16 16" fill="none" xmlns="http://www.w3.org/2000/svg">
<path d="M13.6293 12.8458L10.8728 10.0893C11.5365 9.2058 11.8947 8.13041 11.8935 7.02542C11.8935 4.20297 9.59721 1.90668 6.77475 1.90668C3.95229 1.90668 1.65601 4.20297 1.65601 7.02542C1.65601 9.84788 3.95229 12.1442 6.77475 12.1442C7.87974 12.1454 8.95513 11.7871 9.83862 11.1235L12.5952 13.88C12.7347 14.0047 12.9167 14.0713 13.1038 14.0661C13.2909 14.0609 13.4688 13.9842 13.6012 13.8519C13.7335 13.7195 13.8102 13.5415 13.8154 13.3544C13.8207 13.1674 13.7541 12.9854 13.6293 12.8458ZM3.11851 7.02542C3.11851 6.30229 3.33294 5.59539 3.73469 4.99412C4.13645 4.39286 4.70748 3.92422 5.37557 3.64749C6.04366 3.37076 6.77881 3.29835 7.48805 3.43943C8.1973 3.58051 8.84878 3.92873 9.36011 4.44007C9.87145 4.9514 10.2197 5.60288 10.3607 6.31213C10.5018 7.02137 10.4294 7.75652 10.1527 8.42461C9.87595 9.0927 9.40732 9.66373 8.80606 10.0655C8.20479 10.4672 7.49789 10.6817 6.77475 10.6817C5.80541 10.6805 4.87611 10.2949 4.19068 9.6095C3.50525 8.92407 3.11967 7.99477 3.11851 7.02542Z" fill="#2D3748"/>
</svg>
