<svg width="21" height="20" viewBox="0 0 21 20" fill="none" xmlns="http://www.w3.org/2000/svg">
<path d="M19.8375 9.7875C19.1024 7.88603 17.8262 6.24164 16.1667 5.05755C14.5072 3.87347 12.5372 3.20161 10.5 3.125C8.4628 3.20161 6.49272 3.87347 4.83323 5.05755C3.17374 6.24164 1.89758 7.88603 1.16248 9.7875C1.11283 9.92482 1.11283 10.0752 1.16248 10.2125C1.89758 12.114 3.17374 13.7584 4.83323 14.9424C6.49272 16.1265 8.4628 16.7984 10.5 16.875C12.5372 16.7984 14.5072 16.1265 16.1667 14.9424C17.8262 13.7584 19.1024 12.114 19.8375 10.2125C19.8871 10.0752 19.8871 9.92482 19.8375 9.7875ZM10.5 15.625C7.18748 15.625 3.68748 13.1687 2.41873 10C3.68748 6.83125 7.18748 4.375 10.5 4.375C13.8125 4.375 17.3125 6.83125 18.5812 10C17.3125 13.1687 13.8125 15.625 10.5 15.625Z" fill="black"/>
<path d="M10.5 6.25C9.75832 6.25 9.0333 6.46993 8.41661 6.88199C7.79993 7.29404 7.31928 7.87971 7.03545 8.56494C6.75162 9.25016 6.67736 10.0042 6.82206 10.7316C6.96675 11.459 7.3239 12.1272 7.84835 12.6517C8.3728 13.1761 9.04098 13.5333 9.76841 13.6779C10.4958 13.8226 11.2498 13.7484 11.9351 13.4645C12.6203 13.1807 13.206 12.7001 13.618 12.0834C14.0301 11.4667 14.25 10.7417 14.25 10C14.25 9.00544 13.8549 8.05161 13.1517 7.34835C12.4484 6.64509 11.4946 6.25 10.5 6.25ZM10.5 12.5C10.0055 12.5 9.5222 12.3534 9.11108 12.0787C8.69995 11.804 8.37952 11.4135 8.1903 10.9567C8.00108 10.4999 7.95158 9.99723 8.04804 9.51227C8.1445 9.02732 8.3826 8.58186 8.73223 8.23223C9.08187 7.8826 9.52732 7.6445 10.0123 7.54804C10.4972 7.45157 10.9999 7.50108 11.4567 7.6903C11.9135 7.87952 12.304 8.19995 12.5787 8.61107C12.8534 9.0222 13 9.50555 13 10C13 10.663 12.7366 11.2989 12.2678 11.7678C11.7989 12.2366 11.163 12.5 10.5 12.5Z" fill="black"/>
</svg>
